<svg width="62" height="63" viewBox="0 0 62 63" fill="none" xmlns="http://www.w3.org/2000/svg">
<path opacity="0.5" d="M40.2271 62L37.629 64.4032L38.6797 65.5392H40.2271V62ZM37.0843 58.6024L39.6824 56.1992L37.7569 54.1175L35.3054 55.5428L37.0843 58.6024ZM29.4397 61.8301L30.3152 65.2593L30.3493 65.2506L30.3832 65.2412L29.4397 61.8301ZM9.7337 60.0464L7.89696 63.0716L7.91685 63.0837L7.9369 63.0955L9.7337 60.0464ZM2.59876 52.7416L-0.517362 54.4195L2.59876 52.7416ZM2.76864 34.6494L-0.176113 32.6862H-0.176114L2.76864 34.6494ZM8.71442 28.0241L10.9667 30.7541L13.6817 28.5142L11.4568 25.7869L8.71442 28.0241ZM4.89214 22.2482L1.62835 23.6169L1.65541 23.6814L1.68501 23.7449L4.89214 22.2482ZM6.08129 8.06326L3.12549 6.11676H3.12549L6.08129 8.06326ZM12.3668 2.797L13.8106 6.02828L13.826 6.02138L13.8414 6.01432L12.3668 2.797ZM29.8644 2.45724L28.5986 5.76231L28.6406 5.77836L28.6829 5.79335L29.8644 2.45724ZM36.5747 7.12893L33.8323 9.36613L33.8469 9.38408L33.8618 9.40184L36.5747 7.12893ZM37.0843 23.6922L40.1439 25.471L40.1528 25.4558L40.1614 25.4406L37.0843 23.6922ZM31.3933 30.3175L29.1276 27.5986L26.2539 29.9934L28.8041 32.7302L31.3933 30.3175ZM38.3584 37.7922L35.7691 40.2049L39.5985 44.3145L41.6525 39.0863L38.3584 37.7922ZM39.8024 32.6958L43.2809 33.348L43.2827 33.3385L43.2844 33.3289L39.8024 32.6958ZM40.312 26.6651V23.1259H36.7729V26.6651H40.312ZM53.3078 26.6651L56.8466 26.7116L56.8938 23.1259H53.3078V26.6651ZM51.7789 38.3868L48.3657 37.4509L48.3586 37.4766L48.352 37.5024L51.7789 38.3868ZM47.8716 47.8151L44.8533 45.9671L43.4334 48.2861L45.3084 50.2555L47.8716 47.8151ZM61.3771 62V65.5392H69.6334L63.9403 59.5596L61.3771 62ZM18.9921 17.7464L16.0927 19.776L16.2105 19.9442L16.3469 20.0977L18.9921 17.7464ZM21.2006 19.9548L18.7705 22.5278L20.8673 24.5082L23.2301 22.8542L21.2006 19.9548ZM23.6638 17.9163L26.2945 20.2838L26.3502 20.2219L26.403 20.1574L23.6638 17.9163ZM23.5789 13.4145L21.0763 15.917L21.1421 15.9828L21.2113 16.0451L23.5789 13.4145ZM19.162 13.5843L16.5432 11.2037L16.5373 11.2102L16.5314 11.2168L19.162 13.5843ZM16.359 46.456L13.0972 47.8294L13.1419 47.9357L13.1935 48.0388L16.359 46.456ZM18.7373 49.1741L16.6379 52.0233L16.7215 52.0849L16.8085 52.1415L18.7373 49.1741ZM28.2506 49.1741L29.6578 52.4215L34.2623 50.4262L30.8372 46.7585L28.2506 49.1741ZM18.6524 38.8964L21.239 36.4808L19.0501 34.1369L16.5025 36.085L18.6524 38.8964ZM16.4439 41.1898L19.3538 43.2043L19.3883 43.1545L19.421 43.1036L16.4439 41.1898ZM42.8252 59.5968L39.6824 56.1992L34.4862 61.0056L37.629 64.4032L42.8252 59.5968ZM35.3054 55.5428C33.1275 56.8091 30.8595 57.7654 28.4962 58.419L30.3832 65.2412C33.3428 64.4226 36.1712 63.2271 38.8631 61.662L35.3054 55.5428ZM28.5642 58.401C26.1796 59.0098 23.8122 59.3102 21.4554 59.3102V66.3885C24.4215 66.3885 27.3769 66.0095 30.3152 65.2593L28.5642 58.401ZM21.4554 59.3102C17.2808 59.3102 14.032 58.4714 11.5305 56.9973L7.9369 63.0955C11.7776 65.3588 16.3432 66.3885 21.4554 66.3885V59.3102ZM11.5704 57.0212C8.87776 55.3863 6.96974 53.3941 5.71489 51.0637L-0.517362 54.4195C1.39887 57.9782 4.24747 60.8559 7.89696 63.0716L11.5704 57.0212ZM5.71489 51.0637C4.38595 48.5956 3.7596 46.1389 3.7596 43.653H-3.31871C-3.31871 47.3961 -2.35951 50.9983 -0.517362 54.4195L5.71489 51.0637ZM3.7596 43.653C3.7596 40.8051 4.45045 38.507 5.7134 36.6126L-0.176114 32.6862C-2.31075 35.8882 -3.31871 39.5925 -3.31871 43.653H3.7596ZM5.7134 36.6126C7.22841 34.3401 8.98002 32.3931 10.9667 30.7541L6.46217 25.2941C3.91871 27.3924 1.70646 29.8624 -0.176113 32.6862L5.7134 36.6126ZM11.4568 25.7869C9.80671 23.7642 8.72448 22.0913 8.09926 20.7515L1.68501 23.7449C2.64533 25.8027 4.1113 27.9804 5.97206 30.2613L11.4568 25.7869ZM8.15592 20.8795C7.61906 19.5993 7.32707 18.145 7.32707 16.4723H0.248763C0.248763 18.9899 0.692926 21.3863 1.62835 23.6169L8.15592 20.8795ZM7.32707 16.4723C7.32707 13.752 7.95343 11.6553 9.03709 10.0098L3.12549 6.11676C1.15132 9.11458 0.248763 12.6239 0.248763 16.4723H7.32707ZM9.03709 10.0098C10.1763 8.27986 11.7339 6.95617 13.8106 6.02828L10.9231 -0.434278C7.67689 1.01614 5.04412 3.20329 3.12549 6.11676L9.03709 10.0098ZM13.8414 6.01432C16.0452 5.00427 18.5633 4.46748 21.4554 4.46748V-2.61083C17.6655 -2.61083 14.1246 -1.90184 10.8922 -0.42032L13.8414 6.01432ZM21.4554 4.46748C23.9819 4.46748 26.3547 4.90292 28.5986 5.76231L31.1302 -0.847821C28.0513 -2.02699 24.818 -2.61083 21.4554 -2.61083V4.46748ZM28.6829 5.79335C30.8144 6.54827 32.5028 7.73648 33.8323 9.36613L39.317 4.89173C37.1356 2.21776 34.3506 0.291522 31.046 -0.878861L28.6829 5.79335ZM33.8618 9.40184C34.9549 10.7065 35.6686 12.6051 35.6686 15.453H42.7469C42.7469 11.3925 41.7052 7.74168 39.2875 4.85601L33.8618 9.40184ZM35.6686 15.453C35.6686 17.8714 35.1055 20.0108 34.0072 21.9438L40.1614 25.4406C41.8945 22.3904 42.7469 19.0371 42.7469 15.453H35.6686ZM34.0247 21.9133C32.8363 23.9573 31.2199 25.8551 29.1276 27.5986L33.659 33.0363C36.3234 30.816 38.5009 28.297 40.1439 25.471L34.0247 21.9133ZM28.8041 32.7302L35.7691 40.2049L40.9477 35.3794L33.9826 27.9047L28.8041 32.7302ZM41.6525 39.0863C42.3633 37.2769 42.9034 35.3616 43.2809 33.348L36.3238 32.0436C36.0219 33.6541 35.5993 35.1364 35.0643 36.4981L41.6525 39.0863ZM43.2844 33.3289C43.6668 31.2259 43.8512 29.0017 43.8512 26.6651H36.7729C36.7729 28.632 36.6175 30.4283 36.3203 32.0627L43.2844 33.3289ZM40.312 30.2042H53.3078V23.1259H40.312V30.2042ZM49.7689 26.6185C49.7156 30.6745 49.236 34.2769 48.3657 37.4509L55.192 39.3226C56.2471 35.4749 56.7868 31.2629 56.8466 26.7116L49.7689 26.6185ZM48.352 37.5024C47.5237 40.712 46.3493 43.5236 44.8533 45.9671L50.89 49.663C52.7916 46.5571 54.222 43.0832 55.2058 39.2711L48.352 37.5024ZM45.3084 50.2555L58.8139 64.4404L63.9403 59.5596L50.4348 45.3746L45.3084 50.2555ZM61.3771 58.4608H40.2271V65.5392H61.3771V58.4608ZM14.8584 15.7928C14.8584 17.2052 15.2522 18.5752 16.0927 19.776L21.8915 15.7168C21.8962 15.7234 21.9038 15.7356 21.9122 15.7527C21.9205 15.7698 21.9272 15.7871 21.932 15.8028C21.9368 15.8184 21.9382 15.8277 21.9383 15.8285C21.9384 15.8289 21.9367 15.8177 21.9367 15.7928H14.8584ZM16.3469 20.0977C16.9076 20.7284 17.7371 21.5519 18.7705 22.5278L23.6306 17.3818C22.6255 16.4325 21.9827 15.7837 21.6373 15.3951L16.3469 20.0977ZM23.2301 22.8542C24.4355 22.0105 25.5156 21.1493 26.2945 20.2838L21.0332 15.5487C20.7928 15.8158 20.2307 16.3137 19.171 17.0554L23.2301 22.8542ZM26.403 20.1574C27.495 18.8227 27.9674 17.237 27.9674 15.6229H20.8891C20.8891 15.6835 20.8849 15.7222 20.8818 15.7422C20.8788 15.7618 20.8767 15.7652 20.8796 15.7566C20.8826 15.7476 20.8887 15.7324 20.8985 15.7145C20.9084 15.6967 20.9181 15.6831 20.9247 15.6751L26.403 20.1574ZM27.9674 15.6229C27.9674 13.9401 27.4458 12.1332 25.9464 10.7838L21.2113 16.0451C21.1448 15.9852 21.0812 15.9134 21.0263 15.8329C20.9717 15.7528 20.9354 15.6784 20.9127 15.6193C20.8681 15.5034 20.8891 15.4831 20.8891 15.6229H27.9674ZM26.0814 10.9119C24.7476 9.57803 23.0456 9.11086 21.4554 9.11086V16.1892C21.5808 16.1892 21.5671 16.2071 21.467 16.1711C21.3527 16.1299 21.2061 16.0468 21.0763 15.917L26.0814 10.9119ZM21.4554 9.11086C19.6535 9.11086 17.8796 9.73367 16.5432 11.2037L21.7808 15.965C21.7531 15.9954 21.7121 16.0338 21.6576 16.0721C21.6028 16.1105 21.5468 16.1402 21.4954 16.1612C21.3892 16.2044 21.3569 16.1892 21.4554 16.1892V9.11086ZM16.5314 11.2168C15.3296 12.5521 14.8584 14.1873 14.8584 15.7928H21.9367C21.9367 15.6709 21.9537 15.6594 21.9331 15.7189C21.923 15.7482 21.906 15.7878 21.8798 15.8324C21.8535 15.8772 21.8234 15.9178 21.7927 15.9519L16.5314 11.2168ZM12.1403 43.653C12.1403 45.0854 12.5401 46.5062 13.0972 47.8294L19.6208 45.0826C19.2719 44.254 19.2186 43.8062 19.2186 43.653H12.1403ZM13.1935 48.0388C13.9932 49.6383 15.1892 50.9558 16.6379 52.0233L20.8367 46.3249C20.1336 45.8068 19.7441 45.3123 19.5245 44.8733L13.1935 48.0388ZM16.8085 52.1415C18.6804 53.3582 20.8855 53.8175 23.1542 53.8175V46.7392C21.7987 46.7392 21.0593 46.4623 20.6661 46.2067L16.8085 52.1415ZM23.1542 53.8175C25.3791 53.8175 27.5551 53.3326 29.6578 52.4215L26.8434 45.9267C25.5485 46.4878 24.3269 46.7392 23.1542 46.7392V53.8175ZM30.8372 46.7585L21.239 36.4808L16.0658 41.312L25.664 51.5897L30.8372 46.7585ZM16.5025 36.085C15.3027 37.0025 14.2513 38.0557 13.4669 39.2759L19.421 43.1036C19.6558 42.7383 20.0767 42.2626 20.8022 41.7077L16.5025 36.085ZM13.5341 39.1752C12.6095 40.5108 12.1403 42.0363 12.1403 43.653H19.2186C19.2186 43.4577 19.2591 43.341 19.3538 43.2043L13.5341 39.1752Z" fill="#CAD1D9"/>
</svg>
