<svg width="574" height="36" viewBox="0 0 574 36" fill="none" xmlns="http://www.w3.org/2000/svg">
<path opacity="0.8" d="M0 32H566" stroke="#CAD1D9"/>
<path opacity="0.8" d="M22.9393 31.0607C23.5251 31.6464 24.4749 31.6464 25.0607 31.0607L34.6066 21.5147C35.1924 20.9289 35.1924 19.9792 34.6066 19.3934C34.0208 18.8076 33.0711 18.8076 32.4853 19.3934L24 27.8787L15.5147 19.3934C14.9289 18.8076 13.9792 18.8076 13.3934 19.3934C12.8076 19.9792 12.8076 20.9289 13.3934 21.5147L22.9393 31.0607ZM22.5 -6.55671e-08L22.5 30L25.5 30L25.5 6.55671e-08L22.5 -6.55671e-08Z" fill="#CAD1D9"/>
<circle cx="570" cy="32" r="4" fill="#CAD1D9"/>
</svg>
