<svg width="574" height="37" viewBox="0 0 574 37" fill="none" xmlns="http://www.w3.org/2000/svg">
<path opacity="0.8" d="M8 33L576 33" stroke="#CAD1D9"/>
<path opacity="0.8" d="M550.939 31.0607C551.525 31.6464 552.475 31.6464 553.061 31.0607L562.607 21.5147C563.192 20.9289 563.192 19.9792 562.607 19.3934C562.021 18.8076 561.071 18.8076 560.485 19.3934L552 27.8787L543.515 19.3934C542.929 18.8076 541.979 18.8076 541.393 19.3934C540.808 19.9792 540.808 20.9289 541.393 21.5147L550.939 31.0607ZM550.5 -6.55671e-08L550.5 30L553.5 30L553.5 6.55671e-08L550.5 -6.55671e-08Z" fill="#CAD1D9"/>
<circle cx="4" cy="33" r="4" fill="#CAD1D9"/>
</svg>
