<svg width="33" height="24" viewBox="0 0 33 24" fill="none" xmlns="http://www.w3.org/2000/svg">
<path opacity="0.9" d="M24.3536 12.3536C24.5488 12.1583 24.5488 11.8417 24.3536 11.6464L21.1716 8.46446C20.9763 8.2692 20.6597 8.2692 20.4645 8.46446C20.2692 8.65973 20.2692 8.97631 20.4645 9.17157L23.2929 12L20.4645 14.8284C20.2692 15.0237 20.2692 15.3403 20.4645 15.5355C20.6597 15.7308 20.9763 15.7308 21.1716 15.5355L24.3536 12.3536ZM4.37114e-08 12.5L24 12.5L24 11.5L-4.37114e-08 11.5L4.37114e-08 12.5Z" fill="#0B1926"/>
<circle cx="21" cy="12" r="12" fill="#0774DB"/>
<path d="M24.3536 12.3536C24.5488 12.1583 24.5488 11.8417 24.3536 11.6464L21.1716 8.46447C20.9763 8.2692 20.6597 8.2692 20.4645 8.46447C20.2692 8.65973 20.2692 8.97631 20.4645 9.17157L23.2929 12L20.4645 14.8284C20.2692 15.0237 20.2692 15.3403 20.4645 15.5355C20.6597 15.7308 20.9763 15.7308 21.1716 15.5355L24.3536 12.3536ZM9 12.5L24 12.5L24 11.5L9 11.5L9 12.5Z" fill="white"/>
</svg>
