<svg width="16" height="16" viewBox="0 0 16 16" fill="none" xmlns="http://www.w3.org/2000/svg">
<path d="M6.58374 0.110281C5.9778 1.31328 5.51483 2.5805 5.20093 3.88687C5.96287 4.05731 6.74224 4.15847 7.53021 4.18719V0C7.21077 0.0183437 6.89487 0.055125 6.58374 0.110281Z" fill="white"/>
<path d="M10.9942 4.8064C10.1676 4.99052 9.32372 5.09755 8.46997 5.12627V7.53024H11.2793C11.2548 6.61311 11.1594 5.70233 10.9942 4.8064Z" fill="white"/>
<path d="M9.41546 0.11025C9.10443 0.055125 8.78858 0.0183437 8.46924 0V4.18694C9.25705 4.15853 10.0355 4.05844 10.7981 3.888C10.4841 2.58103 10.0209 1.31272 9.41546 0.11025Z" fill="white"/>
<path d="M8.46924 11.8131V16C8.78874 15.9817 9.10471 15.9449 9.41586 15.8897C10.005 14.7211 10.478 13.4573 10.8007 12.1126C10.0373 11.9418 9.25796 11.8415 8.46924 11.8131Z" fill="white"/>
<path d="M12.2185 8.46936C12.1935 9.4657 12.0892 10.456 11.9067 11.4294C12.8405 11.7065 13.7388 12.0815 14.5968 12.5531C15.4301 11.3514 15.9151 9.94827 16 8.46936H12.2185Z" fill="white"/>
<path d="M5.19922 12.1126C5.50269 13.377 5.95753 14.6468 6.58409 15.8897C6.89525 15.9449 7.21125 15.9817 7.53072 16V11.8131C6.74203 11.8415 5.96266 11.9418 5.19922 12.1126Z" fill="white"/>
<path d="M5.00613 4.80579C4.8411 5.70132 4.74532 6.61207 4.72095 7.53057H7.53026V5.12707C6.67642 5.0981 5.83179 4.98979 5.00613 4.80579Z" fill="white"/>
<path d="M1.40325 3.44641C0.569969 4.64819 0.0849062 6.05135 0 7.53029H3.78169C3.80684 6.53182 3.91197 5.54182 4.09484 4.56916C3.16244 4.29279 2.26022 3.91719 1.40325 3.44641Z" fill="white"/>
<path d="M4.29019 12.3516C3.50831 12.5885 2.74312 12.9007 1.99097 13.3024C2.90081 14.3307 4.0594 15.1256 5.39709 15.5834C4.9285 14.5426 4.5579 13.4617 4.29019 12.3516Z" fill="white"/>
<path d="M1.9917 2.69754C2.72754 3.09017 3.49823 3.40807 4.29282 3.64848C4.56051 2.53957 4.93061 1.45767 5.39907 0.41626C4.11873 0.854197 2.94301 1.62245 1.9917 2.69754Z" fill="white"/>
<path d="M3.78153 8.46936H0C0.0849062 9.94827 0.569937 11.3514 1.40319 12.5531C2.26031 12.082 3.1585 11.7068 4.09331 11.4294C3.91084 10.456 3.80653 9.4657 3.78153 8.46936Z" fill="white"/>
<path d="M10.6011 0.41626C11.0692 1.45757 11.4392 2.54029 11.7069 3.64957C12.5064 3.40751 13.2712 3.09185 14.0089 2.69792C13.0967 1.66685 11.9366 0.873041 10.6011 0.41626Z" fill="white"/>
<path d="M11.7097 12.3516C11.4421 13.4612 11.0715 14.5422 10.6028 15.5834C11.9407 15.1255 13.0993 14.3305 14.0089 13.3024C13.288 12.9174 12.5257 12.5988 11.7097 12.3516Z" fill="white"/>
<path d="M4.72095 8.46936C4.74513 9.38614 4.8402 10.2973 5.00482 11.1935C5.83192 11.0092 6.6762 10.902 7.53048 10.8733V8.46936H4.72095Z" fill="white"/>
<path d="M14.5966 3.44641C13.7564 3.90825 12.8591 4.28757 11.9045 4.57069C12.0876 5.54369 12.1929 6.53341 12.2181 7.53019H15.9998C15.9149 6.05129 15.4299 4.64819 14.5966 3.44641Z" fill="white"/>
<path d="M8.46924 8.46936V10.8733C9.32349 10.902 10.1678 11.0092 10.9949 11.1935C11.1595 10.2973 11.2546 9.38614 11.2788 8.46936H8.46924Z" fill="white"/>
</svg>
