<svg width="20" height="20" viewBox="0 0 20 20" fill="none" xmlns="http://www.w3.org/2000/svg">
<g opacity="0.75">
<mask id="mask0" mask-type="alpha" maskUnits="userSpaceOnUse" x="0" y="0" width="20" height="20">
<rect width="20" height="20" fill="#C4C4C4"/>
</mask>
<g mask="url(#mask0)">
<path d="M11.6666 9.16671C11.6666 10.5474 10.5473 11.6667 9.16659 11.6667C7.78587 11.6667 6.66659 10.5474 6.66659 9.16671C6.66659 7.786 7.78587 6.66671 9.16659 6.66671C10.5473 6.66671 11.6666 7.786 11.6666 9.16671Z" fill="#0774DB"/>
<path fill-rule="evenodd" clip-rule="evenodd" d="M3.33325 9.16671C3.33325 13.5417 9.16659 18.3334 9.16659 18.3334C9.16659 18.3334 14.9999 13.5417 14.9999 9.16671C14.9999 5.94171 12.3916 3.33337 9.16659 3.33337C5.94159 3.33337 3.33325 5.94171 3.33325 9.16671ZM4.99992 9.16671C4.99992 6.86218 6.86206 5.00004 9.16659 5.00004C11.4711 5.00004 13.3333 6.86218 13.3333 9.16671C13.3333 10.7173 12.2368 12.6081 10.8044 14.3218C10.2261 15.0138 9.64428 15.6169 9.16658 16.0812C8.68889 15.6169 8.10709 15.0138 7.52872 14.3218C6.09633 12.6081 4.99992 10.7173 4.99992 9.16671Z" fill="#0774DB"/>
</g>
</g>
</svg>
