<svg width="64" height="16" viewBox="0 0 64 16" fill="none" xmlns="http://www.w3.org/2000/svg">
<path d="M60.3769 8.25221V6.0749H61.8284V7.82611V8.25221H63.9999V8.97799V9.70376H61.8284V11.8753H60.3769V10.8499V9.70376H58.1996V8.25221H58.7184H60.3769Z" fill="white"/>
<path d="M61.8284 7.82611V8.25221H63.9999L63.3883 7.73531L61.8284 7.82611Z" fill="white"/>
<path d="M60.3769 6.0749H61.8284L61.2092 5.60791L60.2751 6.59378L60.3769 6.0749Z" fill="white"/>
<path d="M60.3769 11.8753V10.8499L59.7562 11.3675L60.3769 11.8753Z" fill="white"/>
<path d="M58.1996 9.70376V8.25221H58.7184V8.15041H58.1996L57.5769 9.18817L58.1996 9.70376Z" fill="white"/>
<path d="M59.7767 7.74909V5.57178H61.2282V7.74909H63.3997V9.20063H61.2282V11.3721H59.7767V9.20063H57.5994V7.74909H59.7767Z" fill="#0774DB"/>
<path d="M0 4.21483H1.64315V7.15275L3.95981 4.21483H5.91649L2.93212 8.02368L6.2068 12.7557H4.27915L1.64315 8.96428V12.7557H0V4.21483Z" fill="#0B1926"/>
<path d="M11.3975 4C12.6052 4 13.6426 4.4374 14.5096 5.31219C15.3805 6.18699 15.816 7.25339 15.816 8.51139C15.816 9.75779 15.3863 10.8126 14.527 11.6758C13.6716 12.5389 12.6323 12.9705 11.4091 12.9705C10.1279 12.9705 9.06343 12.5273 8.21573 11.6409C7.36803 10.7545 6.94418 9.70166 6.94418 8.48236C6.94418 7.66563 7.14159 6.9147 7.53641 6.22957C7.93123 5.54444 8.47314 5.00253 9.16214 4.60384C9.855 4.20128 10.6001 4 11.3975 4ZM11.3801 5.59089C10.5905 5.59089 9.92661 5.86572 9.38858 6.41537C8.85054 6.96502 8.58152 7.66369 8.58152 8.51139C8.58152 9.45586 8.92021 10.2029 9.5976 10.7526C10.124 11.1822 10.7279 11.3971 11.4091 11.3971C12.1794 11.3971 12.8355 11.1184 13.3774 10.561C13.9193 10.0036 14.1903 9.31652 14.1903 8.49978C14.1903 7.68692 13.9174 6.99985 13.3716 6.43859C12.8258 5.87346 12.162 5.59089 11.3801 5.59089Z" fill="#0B1926"/>
<path d="M17.343 4.21483H18.992V7.43725H21.8486V4.21483H23.4918V12.7557H21.8486V9.01072H18.992V12.7557H17.343V4.21483Z" fill="#0B1926"/>
<path d="M33.2926 5.71863L32.1546 6.80438C31.3804 5.98765 30.5095 5.57928 29.5418 5.57928C28.7251 5.57928 28.0361 5.85797 27.4748 6.41537C26.9174 6.97276 26.6387 7.65982 26.6387 8.47656C26.6387 9.04556 26.7626 9.5507 27.0103 9.99197C27.258 10.4332 27.6083 10.7797 28.0612 11.0313C28.5141 11.2829 29.0173 11.4087 29.5708 11.4087C30.0431 11.4087 30.4746 11.3216 30.8656 11.1474C31.2565 10.9693 31.6862 10.6481 32.1546 10.1836L33.2577 11.3332C32.6268 11.9486 32.0307 12.3764 31.4694 12.6164C30.9082 12.8525 30.2676 12.9705 29.5476 12.9705C28.2199 12.9705 27.1322 12.5506 26.2845 11.7106C25.4407 10.8668 25.0188 9.78682 25.0188 8.47075C25.0188 7.61918 25.2104 6.86244 25.5936 6.20054C25.9807 5.53864 26.5323 5.0064 27.2484 4.60384C27.9683 4.20128 28.7425 4 29.5708 4C30.2753 4 30.9527 4.14903 31.603 4.44708C32.2571 4.74513 32.8203 5.16898 33.2926 5.71863Z" fill="#0B1926"/>
<path d="M37.3221 4.21483H38.971L42.2573 12.7557H40.5677L39.9 10.9964H36.4163L35.7196 12.7557H34.03L37.3221 4.21483ZM38.1581 6.47923L37.0201 9.41135H39.2903L38.1581 6.47923Z" fill="#0B1926"/>
<path d="M49.0505 12.7557L46.6874 6.47923L44.2837 12.7557H42.5592L45.8513 4.21483H47.5003L50.7866 12.7557H49.0505Z" fill="#0B1926"/>
<path d="M50.9375 4.21483H55.6579V5.81733H54.1019V12.7557H52.4529V5.81733H50.9375V4.21483Z" fill="#0B1926"/>
</svg>
