<svg width="20" height="20" viewBox="0 0 20 20" fill="none" xmlns="http://www.w3.org/2000/svg">
<g opacity="0.75">
<mask id="mask0" mask-type="alpha" maskUnits="userSpaceOnUse" x="0" y="0" width="20" height="20">
<rect width="20" height="20" fill="#C4C4C4"/>
</mask>
<g mask="url(#mask0)">
<path d="M13.9269 10.2443C13.6011 9.9185 13.0744 9.9185 12.7486 10.2443L11.4203 11.5727C10.8044 11.3893 9.65526 10.9727 8.92693 10.2443C8.19859 9.516 7.78193 8.36683 7.59859 7.751L8.92693 6.42267C9.25276 6.09683 9.25276 5.57017 8.92693 5.24433L5.59359 1.911C5.26776 1.58517 4.7411 1.58517 4.41526 1.911L2.15526 4.171C1.8386 4.48767 1.66026 4.92267 1.66693 5.36683C1.6861 6.5535 2.00026 10.6752 5.24859 13.9235C8.49693 17.1718 12.6186 17.4852 13.8061 17.5052C13.8103 17.5052 13.8253 17.5052 13.8294 17.5052C14.2694 17.5052 14.6853 17.3318 15.0003 17.0168L17.2603 14.7568C17.5861 14.431 17.5861 13.9043 17.2603 13.5785L13.9269 10.2443ZM13.8211 15.8377C12.7811 15.8202 9.22276 15.541 6.42693 12.7443C3.62193 9.93933 3.35026 6.3685 3.33359 5.34933L5.00443 3.6785L7.15943 5.8335L6.08193 6.911C5.88276 7.10933 5.79776 7.396 5.85526 7.671C5.87526 7.76683 6.36443 10.0393 7.74776 11.4227C9.13109 12.806 11.4036 13.2952 11.4994 13.3152C11.7769 13.3743 12.0611 13.2885 12.2594 13.0893L13.3378 12.0118L15.4928 14.1668L13.8211 15.8377Z" fill="#0774DB"/>
</g>
</g>
</svg>
