<svg width="24" height="24" viewBox="0 0 24 24" fill="none" xmlns="http://www.w3.org/2000/svg">
<path d="M8.4375 13.6406C8.4375 12.0897 7.1759 10.8281 5.625 10.8281C4.0741 10.8281 2.8125 12.0897 2.8125 13.6406C2.8125 15.1915 4.0741 16.4531 5.625 16.4531C7.1759 16.4531 8.4375 15.1915 8.4375 13.6406ZM5.625 15.0469C4.84955 15.0469 4.21875 14.4161 4.21875 13.6406C4.21875 12.8652 4.84955 12.2344 5.625 12.2344C6.40045 12.2344 7.03125 12.8652 7.03125 13.6406C7.03125 14.4161 6.40045 15.0469 5.625 15.0469Z" fill="white"/>
<path d="M5.625 16.4531C2.91101 16.4531 0.703125 18.661 0.703125 21.375V22.8281C0.703125 23.2165 1.01788 23.5312 1.40625 23.5312H9.84375C10.2321 23.5312 10.5469 23.2165 10.5469 22.8281V21.375C10.5469 18.661 8.33899 16.4531 5.625 16.4531ZM9.14062 22.125H2.10938V21.375C2.10938 19.4365 3.68646 17.8594 5.625 17.8594C7.56354 17.8594 9.14062 19.4365 9.14062 21.375V22.125Z" fill="white"/>
<path d="M21.8906 13.6406C21.8906 12.0897 20.629 10.8281 19.0781 10.8281C17.5272 10.8281 16.2656 12.0897 16.2656 13.6406C16.2656 15.1915 17.5272 16.4531 19.0781 16.4531C20.629 16.4531 21.8906 15.1915 21.8906 13.6406ZM19.0781 15.0469C18.3027 15.0469 17.6719 14.4161 17.6719 13.6406C17.6719 12.8652 18.3027 12.2344 19.0781 12.2344C19.8536 12.2344 20.4844 12.8652 20.4844 13.6406C20.4844 14.4161 19.8536 15.0469 19.0781 15.0469Z" fill="white"/>
<path d="M19.0781 16.4531C16.3641 16.4531 14.1562 18.661 14.1562 21.375V22.8281C14.1562 23.2165 14.471 23.5312 14.8594 23.5312H23.2969C23.6852 23.5312 24 23.2165 24 22.8281V21.375C24 18.661 21.7921 16.4531 19.0781 16.4531ZM22.5938 22.125H15.5625V21.375C15.5625 19.4365 17.1396 17.8594 19.0781 17.8594C21.0167 17.8594 22.5938 19.4365 22.5938 21.375V22.125Z" fill="white"/>
<path fill-rule="evenodd" clip-rule="evenodd" d="M4.9126 2.34375V8.57163H7.79014C8.23503 8.57163 8.67074 8.69826 9.04634 8.93672L12.2813 10.9905L15.5164 8.93672C15.892 8.69826 16.3277 8.57163 16.7726 8.57163H19.6501V2.34375H4.9126ZM4.44385 0.9375C3.92608 0.9375 3.50635 1.35723 3.50635 1.875V9.04038C3.50635 9.55815 3.92608 9.97788 4.44385 9.97788H7.79014C7.9681 9.97788 8.14238 10.0285 8.29262 10.1239L11.7789 12.3372C12.0856 12.5319 12.4771 12.532 12.7838 12.3372L16.2701 10.1239C16.4203 10.0285 16.5946 9.97788 16.7726 9.97788H20.1188C20.6366 9.97788 21.0563 9.55815 21.0563 9.04038V1.875C21.0563 1.35723 20.6366 0.9375 20.1188 0.9375H4.44385Z" fill="white"/>
<path fill-rule="evenodd" clip-rule="evenodd" d="M6.89062 4.07812C6.89062 3.6898 7.20542 3.375 7.59375 3.375H16.9688C17.3571 3.375 17.6719 3.6898 17.6719 4.07812C17.6719 4.46645 17.3571 4.78125 16.9688 4.78125H7.59375C7.20542 4.78125 6.89062 4.46645 6.89062 4.07812Z" fill="white"/>
<path fill-rule="evenodd" clip-rule="evenodd" d="M6.89062 7.17188C6.89062 6.78355 7.20542 6.46875 7.59375 6.46875H16.9688C17.3571 6.46875 17.6719 6.78355 17.6719 7.17188C17.6719 7.5602 17.3571 7.875 16.9688 7.875H7.59375C7.20542 7.875 6.89062 7.5602 6.89062 7.17188Z" fill="white"/>
</svg>
