<svg width="24" height="24" viewBox="0 0 24 24" fill="none" xmlns="http://www.w3.org/2000/svg">
<path d="M12 5.67188C12.3876 5.67188 12.7031 5.98737 12.7031 6.375C12.7031 6.76263 12.3876 7.07812 12 7.07812C11.7497 7.07812 11.5162 6.94318 11.3904 6.72601C11.1962 6.38983 10.7659 6.27502 10.4299 6.46948C10.0937 6.66394 9.97888 7.09406 10.1732 7.43024C10.4277 7.87006 10.8305 8.19672 11.2969 8.36224V9.13129C11.2969 9.51965 11.6116 9.83441 12 9.83441C12.3884 9.83441 12.7031 9.51965 12.7031 9.13129V8.36353C13.5216 8.07312 14.1094 7.29163 14.1094 6.375C14.1094 5.21191 13.1631 4.26562 12 4.26562C11.6124 4.26562 11.2969 3.95013 11.2969 3.5625C11.2969 3.17487 11.6124 2.85938 12 2.85938C12.2503 2.85938 12.4838 2.99432 12.6096 3.21149C12.8038 3.54767 13.2341 3.66248 13.5701 3.46802C13.9063 3.27356 14.0211 2.84344 13.8268 2.50726C13.5723 2.06744 13.1695 1.74078 12.7031 1.57526V0.703125C12.7031 0.314758 12.3884 0 12 0C11.6116 0 11.2969 0.314758 11.2969 0.703125V1.57397C10.4784 1.86438 9.89062 2.64587 9.89062 3.5625C9.89062 4.72559 10.8369 5.67188 12 5.67188Z" fill="white"/>
<path d="M14.8125 14.1094C14.8125 12.5585 13.5509 11.2969 12 11.2969C10.4491 11.2969 9.1875 12.5585 9.1875 14.1094C9.1875 15.6603 10.4491 16.9219 12 16.9219C13.5509 16.9219 14.8125 15.6603 14.8125 14.1094ZM12 15.5156C11.2245 15.5156 10.5938 14.8848 10.5938 14.1094C10.5938 13.3339 11.2245 12.7031 12 12.7031C12.7755 12.7031 13.4062 13.3339 13.4062 14.1094C13.4062 14.8848 12.7755 15.5156 12 15.5156Z" fill="white"/>
<path d="M23.25 15.5156C23.25 13.9647 21.9884 12.7031 20.4375 12.7031C18.8866 12.7031 17.625 13.9647 17.625 15.5156C17.625 17.0665 18.8866 18.3281 20.4375 18.3281C21.9884 18.3281 23.25 17.0665 23.25 15.5156ZM20.4375 16.9219C19.662 16.9219 19.0312 16.2911 19.0312 15.5156C19.0312 14.7402 19.662 14.1094 20.4375 14.1094C21.213 14.1094 21.8438 14.7402 21.8438 15.5156C21.8438 16.2911 21.213 16.9219 20.4375 16.9219Z" fill="white"/>
<path d="M6.375 16.9219C6.375 15.371 5.1134 14.1094 3.5625 14.1094C2.0116 14.1094 0.75 15.371 0.75 16.9219C0.75 18.4728 2.0116 19.7344 3.5625 19.7344C5.1134 19.7344 6.375 18.4728 6.375 16.9219ZM3.5625 18.3281C2.78705 18.3281 2.15625 17.6973 2.15625 16.9219C2.15625 16.1464 2.78705 15.5156 3.5625 15.5156C4.33795 15.5156 4.96875 16.1464 4.96875 16.9219C4.96875 17.6973 4.33795 18.3281 3.5625 18.3281Z" fill="white"/>
<path d="M3.5625 19.7344C2.62354 19.7344 1.73218 20.1085 1.05322 20.7876C0.374084 21.4666 0 22.3579 0 23.2969C0 23.6852 0.314758 24 0.703125 24H6.375C6.76337 24 7.07812 23.6852 7.07812 23.2969C7.07812 22.3579 6.71448 21.4688 6.05402 20.7933C5.3866 20.1105 4.50183 19.7344 3.5625 19.7344ZM1.52875 22.5938C1.82776 21.7579 2.63855 21.1406 3.5625 21.1406C4.46631 21.1406 5.25934 21.7579 5.55194 22.5938H1.52875Z" fill="white"/>
<path d="M22.9468 19.3812C22.2678 18.7022 21.3765 18.3281 20.4375 18.3281C19.4982 18.3281 18.6134 18.7042 17.946 19.387C17.2855 20.0625 16.9219 20.9517 16.9219 21.8906C16.9219 19.1508 14.714 16.9219 12 16.9219C9.28601 16.9219 7.07812 19.1508 7.07812 21.8906V23.2969C7.07812 23.6852 7.39288 24 7.78125 24H16.2188C16.6071 24 16.9219 23.6852 16.9219 23.2969C16.9219 23.6852 17.2366 24 17.625 24H23.2969C23.6852 24 24 23.6852 24 23.2969V21.8906C24 20.9515 23.6259 20.0603 22.9468 19.3812ZM15.5156 22.5938H8.48438V21.8906C8.48438 19.9263 10.0615 18.3281 12 18.3281C13.9385 18.3281 15.5156 19.9263 15.5156 21.8906V22.5938ZM22.5938 22.5938H18.3281V21.8906C18.3281 20.7219 19.294 19.7344 20.4375 19.7344C21.6063 19.7344 22.5938 20.7219 22.5938 21.8906V22.5938Z" fill="white"/>
</svg>
