<svg width="24" height="24" viewBox="0 0 24 24" fill="none" xmlns="http://www.w3.org/2000/svg">
<path d="M20.4375 0H3.5625C3.17413 0 2.85938 0.314758 2.85938 0.703125V23.2969C2.85938 23.6852 3.17413 24 3.5625 24H20.4375C20.8259 24 21.1406 23.6852 21.1406 23.2969V0.703125C21.1406 0.314758 20.8259 0 20.4375 0ZM11.2969 7.07812V9.89062H8.48438V7.07812H11.2969ZM15.5156 7.07812V9.89062H12.7031V7.07812H15.5156ZM19.7344 7.07812V9.89062H16.9219V7.07812H19.7344ZM8.48438 11.2969H11.2969V14.1094H8.48438V11.2969ZM7.07812 14.1094H4.26562V11.2969H7.07812V14.1094ZM7.07812 9.89062H4.26562V7.07812H7.07812V9.89062ZM4.26562 15.5156H7.07812V18.3281H4.26562V15.5156ZM8.48438 15.5156H11.2969V18.3281H8.48438V15.5156ZM11.2969 19.7344V22.5938H8.48438V19.7344H11.2969ZM12.7031 19.7344H15.5156V22.5938H12.7031V19.7344ZM15.5156 18.3281H12.7031V15.5156H15.5156V18.3281ZM12.7031 14.1094V11.2969H15.5156V14.1094H12.7031ZM16.9219 11.2969H19.7344V14.1094H16.9219V11.2969ZM19.7344 1.40625V5.67188H4.26562V1.40625H19.7344ZM4.26562 19.7344H7.07812V22.5938H4.26562V19.7344ZM16.9219 22.5938V15.5156H19.7344V22.5938H16.9219Z" fill="white"/>
<path d="M18.3281 3.5625C18.3281 3.95087 18.0134 4.26562 17.625 4.26562C17.2366 4.26562 16.9219 3.95087 16.9219 3.5625C16.9219 3.17413 17.2366 2.85938 17.625 2.85938C18.0134 2.85938 18.3281 3.17413 18.3281 3.5625Z" fill="white"/>
<path d="M15.5156 3.5625C15.5156 3.95087 15.2009 4.26562 14.8125 4.26562C14.4241 4.26562 14.1094 3.95087 14.1094 3.5625C14.1094 3.17413 14.4241 2.85938 14.8125 2.85938C15.2009 2.85938 15.5156 3.17413 15.5156 3.5625Z" fill="white"/>
<path d="M12.7031 3.5625C12.7031 3.95087 12.3884 4.26562 12 4.26562C11.6116 4.26562 11.2969 3.95087 11.2969 3.5625C11.2969 3.17413 11.6116 2.85938 12 2.85938C12.3884 2.85938 12.7031 3.17413 12.7031 3.5625Z" fill="white"/>
</svg>
