<svg width="24" height="24" viewBox="0 0 24 24" fill="none" xmlns="http://www.w3.org/2000/svg">
<path d="M20.9062 8.4375C20.9062 6.8866 19.6447 5.625 18.0938 5.625C16.5428 5.625 15.2812 6.8866 15.2812 8.4375C15.2812 9.9884 16.5428 11.25 18.0938 11.25C19.6447 11.25 20.9062 9.9884 20.9062 8.4375ZM18.0938 9.84375C17.3183 9.84375 16.6875 9.21295 16.6875 8.4375C16.6875 7.66205 17.3183 7.03125 18.0938 7.03125C18.8692 7.03125 19.5 7.66205 19.5 8.4375C19.5 9.21295 18.8692 9.84375 18.0938 9.84375Z" fill="white"/>
<path d="M18.0938 11.25C15.3798 11.25 13.1719 13.4579 13.1719 16.1719V17.625C13.1719 18.0134 13.4866 18.3281 13.875 18.3281H22.3125C22.7009 18.3281 23.0156 18.0134 23.0156 17.625V16.1719C23.0156 13.4579 20.8077 11.25 18.0938 11.25ZM21.6094 16.9219H14.5781V16.1719C14.5781 14.2333 16.1552 12.6562 18.0938 12.6562C20.0323 12.6562 21.6094 14.2333 21.6094 16.1719V16.9219Z" fill="white"/>
<path fill-rule="evenodd" clip-rule="evenodd" d="M0.984375 1.92188H20.4375C20.8258 1.92188 21.1406 2.23667 21.1406 2.625C21.1406 3.01333 20.8258 3.32812 20.4375 3.32812H2.39062V20.6719H20.4375C20.8258 20.6719 21.1406 20.9867 21.1406 21.375C21.1406 21.7633 20.8258 22.0781 20.4375 22.0781H0.984375V1.92188Z" fill="white"/>
<path fill-rule="evenodd" clip-rule="evenodd" d="M3.32812 5.625C3.32812 5.23667 3.51947 4.92188 3.75551 4.92188H11.6195C11.8555 4.92188 12.0469 5.23667 12.0469 5.625C12.0469 6.01333 11.8555 6.32812 11.6195 6.32812H3.75551C3.51947 6.32812 3.32812 6.01333 3.32812 5.625Z" fill="white"/>
<path fill-rule="evenodd" clip-rule="evenodd" d="M3.32812 18.4219C3.32812 18.0335 3.64292 17.7188 4.03125 17.7188H11.3438C11.7321 17.7188 12.0469 18.0335 12.0469 18.4219C12.0469 18.8102 11.7321 19.125 11.3438 19.125H4.03125C3.64292 19.125 3.32812 18.8102 3.32812 18.4219Z" fill="white"/>
<path fill-rule="evenodd" clip-rule="evenodd" d="M3.32812 14.1562C3.32812 13.7679 3.64292 13.4531 4.03125 13.4531H11.3438C11.7321 13.4531 12.0469 13.7679 12.0469 14.1562C12.0469 14.5446 11.7321 14.8594 11.3438 14.8594H4.03125C3.64292 14.8594 3.32812 14.5446 3.32812 14.1562Z" fill="white"/>
<path fill-rule="evenodd" clip-rule="evenodd" d="M3.32812 9.89062C3.32812 9.5023 3.64292 9.1875 4.03125 9.1875H11.3438C11.7321 9.1875 12.0469 9.5023 12.0469 9.89062C12.0469 10.279 11.7321 10.5938 11.3438 10.5938H4.03125C3.64292 10.5938 3.32812 10.279 3.32812 9.89062Z" fill="white"/>
</svg>
