<svg width="48" height="24" viewBox="0 0 48 24" fill="none" xmlns="http://www.w3.org/2000/svg">
<path opacity="0.9" d="M39.3536 12.3535C39.5488 12.1583 39.5488 11.8417 39.3536 11.6464L36.1716 8.46446C35.9763 8.2692 35.6597 8.2692 35.4645 8.46446C35.2692 8.65973 35.2692 8.97631 35.4645 9.17157L38.2929 12L35.4645 14.8284C35.2692 15.0237 35.2692 15.3403 35.4645 15.5355C35.6597 15.7308 35.9763 15.7308 36.1716 15.5355L39.3536 12.3535ZM4.37114e-08 12.5L39 12.5L39 11.5L-4.37114e-08 11.5L4.37114e-08 12.5Z" fill="#0B1926"/>
<circle cx="36" cy="12" r="12" fill="#204261"/>
<path d="M39.3536 12.3536C39.5488 12.1583 39.5488 11.8417 39.3536 11.6464L36.1716 8.46447C35.9763 8.2692 35.6597 8.2692 35.4645 8.46447C35.2692 8.65973 35.2692 8.97631 35.4645 9.17157L38.2929 12L35.4645 14.8284C35.2692 15.0237 35.2692 15.3403 35.4645 15.5355C35.6597 15.7308 35.9763 15.7308 36.1716 15.5355L39.3536 12.3536ZM24 12.5L39 12.5L39 11.5L24 11.5L24 12.5Z" fill="white"/>
</svg>
