<svg width="15" height="13" viewBox="0 0 15 13" fill="none" xmlns="http://www.w3.org/2000/svg">
<path d="M0.248413 5.93164L3.5054 7.14611L4.77506 11.2311C4.83026 11.5071 5.16149 11.5623 5.3823 11.3967L7.20399 9.90625C7.3696 9.74064 7.64562 9.74064 7.86643 9.90625L11.1234 12.28C11.3442 12.4456 11.6754 12.3352 11.7306 12.0592L14.1596 0.466548C14.2148 0.190533 13.9388 -0.0854792 13.6627 0.0249266L0.248413 5.214C-0.0828044 5.32441 -0.0828044 5.82123 0.248413 5.93164ZM4.60946 6.53887L11.013 2.61946C11.1234 2.56426 11.2338 2.72987 11.1234 2.78507L5.87912 7.69814C5.71351 7.86374 5.5479 8.08455 5.5479 8.36057L5.3823 9.68544C5.3823 9.85105 5.10628 9.90625 5.05108 9.68544L4.38863 7.25651C4.22302 6.9805 4.33344 6.64928 4.60946 6.53887Z" fill="white"/>
</svg>
