<svg width="13" height="13" viewBox="0 0 13 13" fill="none" xmlns="http://www.w3.org/2000/svg">
<path d="M10.1995 12.5421C10.4253 12.5459 10.643 12.4579 10.8027 12.2983L12.2979 10.8038C12.4542 10.6476 12.5421 10.4356 12.5421 10.2145C12.5421 9.99348 12.4543 9.78147 12.298 9.62517L10.3705 7.69764C10.0451 7.3723 9.51768 7.3722 9.19221 7.69742L8.26211 8.6268C8.1277 8.59563 7.70917 8.49095 7.19737 8.28861C6.57191 8.04133 5.87391 7.67401 5.37056 7.17067C4.86722 6.66732 4.4999 5.96932 4.25262 5.34387C4.05059 4.83285 3.94593 4.41483 3.91457 4.27975L4.84433 3.34999C5.00062 3.19371 5.08841 2.98175 5.08841 2.76073C5.08841 2.53972 5.00061 2.32776 4.84433 2.17148L2.91681 0.243955C2.59137 -0.0814813 2.06374 -0.0814811 1.7383 0.243956L0.243834 1.73842C0.0842118 1.89804 -0.00382365 2.11559 -0.00013258 2.3413C0.0160362 3.33002 0.272653 6.79328 3.01056 9.53125C5.73982 12.2613 9.19128 12.5251 10.1995 12.5421Z" fill="white"/>
</svg>
