<svg width="16" height="16" viewBox="0 0 16 16" fill="none" xmlns="http://www.w3.org/2000/svg">
<g clip-path="url(#clip0)">
<path d="M15.4365 9.26189C15.9138 5.24389 15.2071 2.70723 13.9325 1.55989L13.9331 1.55923C11.8758 -0.400106 4.92781 -0.690106 2.46648 1.64723C1.36114 2.79056 0.971809 4.46856 0.929142 6.54589C0.886475 8.62389 0.835809 12.5166 4.46314 13.5726H4.46648L4.46314 15.1852C4.46314 15.1852 4.43848 15.8386 4.85581 15.9699C5.33314 16.1246 5.54914 15.8212 7.03381 14.0479C9.51648 14.2632 11.4231 13.7699 11.6398 13.6979C12.1411 13.5299 14.9778 13.1546 15.4365 9.26189ZM7.27848 12.9132C7.27848 12.9132 5.70714 14.8726 5.21848 15.3812C5.05848 15.5466 4.88314 15.5312 4.88581 15.2032C4.88581 14.9879 4.89781 12.5259 4.89781 12.5259C1.82248 11.6446 2.00381 8.3299 2.03714 6.59589C2.07048 4.86123 2.38781 3.44056 3.32381 2.48389C5.48314 0.459228 11.5745 0.911894 13.1265 2.37056C15.0238 4.05256 14.3485 8.80456 14.3525 8.96656C13.9625 12.2159 11.6638 12.4219 11.2411 12.5626C11.0605 12.6226 9.38381 13.0539 7.27848 12.9132Z" fill="white"/>
<path d="M8.14782 2.8645C7.89116 2.8645 7.89116 3.2645 8.14782 3.26784C10.1392 3.28317 11.7792 4.67117 11.7972 7.21717C11.7972 7.48584 12.1905 7.4825 12.1872 7.21384H12.1865C12.1652 4.4705 10.3745 2.87984 8.14782 2.8645Z" fill="white"/>
<path d="M10.7675 6.79523C10.7615 7.06057 11.1541 7.07323 11.1575 6.80457C11.1901 5.2919 10.2575 4.0459 8.50479 3.91457C8.24812 3.8959 8.22145 4.29924 8.47746 4.3179C9.99746 4.43324 10.7981 5.47057 10.7675 6.79523Z" fill="white"/>
<path d="M10.3471 8.51603C10.0177 8.32536 9.68239 8.44403 9.54373 8.63136L9.25373 9.0067C9.10639 9.19736 8.83106 9.17203 8.83106 9.17203C6.82173 8.6407 6.2844 6.53803 6.2844 6.53803C6.2844 6.53803 6.25973 6.25336 6.44373 6.1007L6.8064 5.8007C6.98773 5.6567 7.1024 5.31003 6.91773 4.96936C6.4244 4.07803 6.09307 3.7707 5.9244 3.5347C5.74707 3.3127 5.4804 3.2627 5.20307 3.4127H5.19707C4.6204 3.75003 3.98907 4.38136 4.19107 5.03136C4.53574 5.7167 5.16907 7.90136 7.18773 9.55203C8.1364 10.3327 9.63773 11.1327 10.2751 11.3174L10.2811 11.3267C10.9091 11.536 11.5197 10.88 11.8457 10.286V10.2814C11.9904 9.99403 11.9424 9.72203 11.7311 9.54403C11.3564 9.1787 10.7911 8.77536 10.3471 8.51603Z" fill="white"/>
<path d="M8.7794 5.40254C9.42007 5.43987 9.73074 5.77454 9.76407 6.46188C9.77607 6.73055 10.1661 6.71188 10.1541 6.44321C10.1114 5.54587 9.64341 5.04587 8.80073 4.99921C8.54406 4.98387 8.52006 5.38721 8.7794 5.40254Z" fill="white"/>
</g>
<defs>
<clipPath id="clip0">
<rect width="16" height="16" fill="white"/>
</clipPath>
</defs>
</svg>
