<svg width="24" height="24" viewBox="0 0 24 24" fill="none" xmlns="http://www.w3.org/2000/svg">
<path d="M18.4165 18.3329C17.6 19.3068 17.093 20.5019 16.9543 21.7563H15.5093V20.1961C15.5042 20.1968 14.1522 20.3501 14.103 20.3501H8.47803V21.7563H7.00756C6.82568 20.8065 6.26586 19.9648 5.4342 19.4265C3.5105 18.1811 3.14084 16.3369 3.03368 16.1313H1.3999V13.3188H3.03364L3.1999 12.8513C3.43147 12.1998 3.80131 11.6836 3.91906 11.481L3.12546 9.1001H3.32797C4.6047 9.1001 5.39178 9.80369 5.57731 9.89725C5.80521 9.80664 6.81748 9.1001 8.47803 9.1001H11.6994C12.57 11.5554 14.9155 13.3188 17.6655 13.3188C18.2918 13.3188 18.8969 13.227 19.4686 13.0567C20.0265 14.7754 19.696 16.8068 18.4165 18.3329Z" fill="#45D0F7"/>
<path d="M17.6719 6.375C17.2842 6.375 16.9688 6.05958 16.9688 5.67188C16.9688 5.28417 17.2842 4.96875 17.6719 4.96875C17.9552 4.96875 18.2097 5.13741 18.32 5.39841L19.6152 4.85058C19.2842 4.06809 18.5214 3.5625 17.6719 3.5625C16.5088 3.5625 15.5625 4.50877 15.5625 5.67188C15.5625 6.83498 16.5088 7.78125 17.6719 7.78125C18.0596 7.78125 18.375 8.09667 18.375 8.48438C18.375 8.87208 18.0596 9.1875 17.6719 9.1875C17.3885 9.1875 17.1341 9.01884 17.0237 8.75784L15.7285 9.30567C16.0596 10.0882 16.8223 10.5938 17.6719 10.5938C18.835 10.5938 19.7812 9.64748 19.7812 8.48438C19.7812 7.32127 18.835 6.375 17.6719 6.375Z" fill="black"/>
<path d="M24 7.07812C24 3.5888 21.1612 0.75 17.6719 0.75C14.1825 0.75 11.3438 3.5888 11.3438 7.07812C11.3438 7.31578 11.3574 7.5503 11.383 7.78125H8.48438C7.49691 7.78125 6.54867 7.98141 5.66002 8.37684C4.9388 7.98614 4.14239 7.78125 3.33431 7.78125H1.18069L2.38462 11.3931C2.26434 11.6023 2.16066 11.8027 2.0708 12H0V17.625H2.06691C2.61623 18.874 3.52908 19.9516 4.67634 20.6943C5.29973 21.0979 5.67188 21.7814 5.67188 22.5227V23.25H9.89062V21.8438H14.1094V23.25H18.3281V22.5469C18.3281 21.3701 18.7445 20.2255 19.5005 19.3237C21.1455 17.3617 21.5222 14.7592 20.7738 12.5921C22.6979 11.5054 24 9.44109 24 7.07812ZM18.4229 18.4203C17.6064 19.3942 17.0993 20.5893 16.9607 21.8438H15.5156V20.2835C15.5106 20.2842 14.1586 20.4375 14.1094 20.4375H8.48438V21.8438H7.01391C6.83203 20.8939 6.2722 20.0522 5.44055 19.5139C3.51684 18.2685 3.14719 16.4243 3.04003 16.2188H1.40625V13.4062H3.03998L3.20625 12.9387C3.43781 12.2872 3.80766 11.771 3.92541 11.5684L3.13181 9.1875H3.33431C4.61105 9.1875 5.39813 9.89109 5.58366 9.98466C5.81156 9.89405 6.82383 9.1875 8.48438 9.1875H11.7057C12.5764 11.6428 14.9219 13.4062 17.6719 13.4062C18.2981 13.4062 18.9033 13.3144 19.475 13.1441C20.0328 14.8628 19.7024 16.8942 18.4229 18.4203ZM17.6719 12C14.958 12 12.75 9.79205 12.75 7.07812C12.75 4.3642 14.958 2.15625 17.6719 2.15625C20.3858 2.15625 22.5938 4.3642 22.5938 7.07812C22.5938 9.79205 20.3858 12 17.6719 12Z" fill="black"/>
<path d="M5.67188 12H7.07812V13.4062H5.67188V12Z" fill="black"/>
</svg>
