<svg width="24" height="24" viewBox="0 0 24 24" fill="none" xmlns="http://www.w3.org/2000/svg">
<path d="M2 17.2852H7V13.9453H12V10.957H16V22.9102H2V17.2852Z" fill="#0774DB"/>
<path fill-rule="evenodd" clip-rule="evenodd" d="M15.9995 8.45832C15.9995 7.65291 16.783 7 17.7495 7H20.7494C21.7159 7 22.4994 7.65292 22.4994 8.45832V23.2495H15.9995V8.45832ZM17.7495 8.24999C17.6114 8.24999 17.4995 8.34327 17.4995 8.45832V21.9995H20.9994V8.45832C20.9994 8.34327 20.8875 8.24999 20.7494 8.24999H17.7495Z" fill="#143656"/>
<path fill-rule="evenodd" clip-rule="evenodd" d="M11 11.4585C11 10.6531 11.7835 10.0001 12.75 10.0001H15.7499C16.7164 10.0001 17.4999 10.6531 17.4999 11.4585V23.2498H11V11.4585ZM12.75 11.2501C12.6119 11.2501 12.5 11.3434 12.5 11.4585V21.9998H15.9999V11.4585C15.9999 11.3434 15.888 11.2501 15.7499 11.2501H12.75Z" fill="#143656"/>
<path fill-rule="evenodd" clip-rule="evenodd" d="M6 14.4586C6 13.6532 6.7835 13.0003 7.75 13.0003H10.7499C11.7164 13.0003 12.4999 13.6532 12.4999 14.4586V23.25H6V14.4586ZM7.75 14.2503C7.61193 14.2503 7.5 14.3436 7.5 14.4586V22H10.9999V14.4586C10.9999 14.3436 10.888 14.2503 10.7499 14.2503H7.75Z" fill="#143656"/>
<path fill-rule="evenodd" clip-rule="evenodd" d="M1 17.4579C1 16.6525 1.7835 15.9996 2.75 15.9996H5.74992C6.71642 15.9996 7.49992 16.6525 7.49992 17.4579V23.2494H1V17.4579ZM2.75 17.2496C2.61193 17.2496 2.5 17.3428 2.5 17.4579V21.9994H5.99992V17.4579C5.99992 17.3428 5.88799 17.2496 5.74992 17.2496H2.75Z" fill="#143656"/>
<path d="M6.10938 6.67188C6.49701 6.67188 6.8125 6.98737 6.8125 7.375C6.8125 7.76263 6.49701 8.07812 6.10938 8.07812C5.85907 8.07812 5.62561 7.94318 5.49982 7.72601C5.30554 7.38983 4.87524 7.27502 4.53925 7.46948C4.20306 7.66394 4.08826 8.09406 4.28253 8.43024C4.53705 8.87006 4.93988 9.19672 5.40625 9.36224V10.1313C5.40625 10.5197 5.72101 10.8344 6.10938 10.8344C6.49774 10.8344 6.8125 10.5197 6.8125 10.1313V9.36353C7.63098 9.07312 8.21875 8.29163 8.21875 7.375C8.21875 6.21191 7.27246 5.26562 6.10938 5.26562C5.72174 5.26562 5.40625 4.95013 5.40625 4.5625C5.40625 4.17487 5.72174 3.85938 6.10938 3.85938C6.35968 3.85938 6.59314 3.99432 6.71893 4.21149C6.91321 4.54767 7.34351 4.66248 7.6795 4.46802C8.01569 4.27356 8.13049 3.84344 7.93622 3.50726C7.6817 3.06744 7.27887 2.74078 6.8125 2.57526V1.70312C6.8125 1.31476 6.49774 1 6.10938 1C5.72101 1 5.40625 1.31476 5.40625 1.70312V2.57397C4.58777 2.86438 4 3.64587 4 4.5625C4 5.72559 4.94629 6.67188 6.10938 6.67188Z" fill="#143656"/>
</svg>
