<svg width="24" height="24" viewBox="0 0 24 24" fill="none" xmlns="http://www.w3.org/2000/svg">
<path d="M7.73438 15.5625C7.35984 15.5625 7.03125 15.212 7.03125 14.8125C7.03125 14.5178 7.21711 14.2522 7.49372 14.1514C7.85466 14.0199 8.27527 14.1983 8.64713 14.641C8.89697 14.9384 9.34041 14.977 9.63778 14.7272C9.93516 14.4775 9.97373 14.034 9.72399 13.7366C9.34388 13.284 8.90142 12.9729 8.4375 12.8167V12C8.4375 11.6117 8.12269 11.2969 7.73438 11.2969C7.34606 11.2969 7.03125 11.6117 7.03125 12V12.8237C7.02497 12.8259 7.01869 12.8278 7.01245 12.8301C6.18258 13.1324 5.625 13.929 5.625 14.8125C5.625 15.3729 5.84048 15.9069 6.23175 16.3162C6.63403 16.737 7.1677 16.9688 7.73438 16.9688C8.12208 16.9688 8.4375 17.2842 8.4375 17.6719C8.4375 17.9551 8.26894 18.2094 8.00817 18.3199C7.69331 18.4532 7.31653 18.3395 6.97416 18.0078C6.6952 17.7376 6.25017 17.7446 5.97989 18.0235C5.7097 18.3024 5.71673 18.7475 5.99564 19.0177C6.31308 19.3252 6.666 19.5426 7.03125 19.6652V20.4844C7.03125 20.8727 7.34606 21.1875 7.73438 21.1875C8.12269 21.1875 8.4375 20.8727 8.4375 20.4844V19.6607C9.29508 19.3559 9.84375 18.5557 9.84375 17.6719C9.84375 16.5088 8.89748 15.5625 7.73438 15.5625Z" fill="black"/>
<path d="M22.592 20.4789C22.592 21.339 20.3825 22.5883 16.9202 22.5883C15.4473 22.5883 14.0558 22.3522 13 21.9386C13.0745 21.8702 13.1482 21.8007 13.2205 21.7291C13.8536 21.1017 14.3645 20.3868 14.7423 19.6128C15.4409 19.7205 16.1707 19.7758 16.9202 19.7758C18.769 19.7758 21.0618 19.4164 22.592 18.4155V20.4789Z" fill="#0774DB"/>
<path d="M22.592 16.2602C22.592 17.1202 20.3825 18.3695 16.9202 18.3695C16.3465 18.3695 15.7874 18.3337 15.2485 18.2643C15.4232 17.6181 15.5139 16.9458 15.5139 16.2602C15.5139 15.9841 15.4989 15.7102 15.4701 15.4391C15.9437 15.4859 16.4284 15.5102 16.9202 15.5102C18.7692 15.5102 21.0618 15.1507 22.592 14.1499V16.2602Z" fill="#0774DB"/>
<path d="M21.7031 0.883312C20.4084 0.313687 18.7104 0 16.9219 0C13.2618 0 9.89062 1.34395 9.89062 3.51562C9.89062 4.05895 9.89062 8.28347 9.89062 8.79117C9.1973 8.58928 8.47317 8.48438 7.73438 8.48438C5.67319 8.48438 3.73097 9.29887 2.26547 10.7779C0.804563 12.2522 0 14.2012 0 16.2656C0 20.5304 3.46964 24 7.73438 24C9.15755 24 10.5258 23.6175 11.7215 22.9013C13.0293 23.6029 14.8928 24 16.9219 24C18.7104 24 20.4084 23.6863 21.7031 23.1167C23.1843 22.4651 24 21.5302 24 20.4844C24 20.0465 24 3.96263 24 3.51562C24 2.46975 23.1843 1.53492 21.7031 0.883312ZM7.73438 22.5938C4.24505 22.5938 1.40625 19.755 1.40625 16.2656C1.40625 12.7504 4.24505 9.89062 7.73438 9.89062C11.2495 9.89062 14.1094 12.7504 14.1094 16.2656C14.1094 19.755 11.2495 22.5938 7.73438 22.5938ZM22.5938 20.4844C22.5938 21.3444 20.3842 22.5938 16.9219 22.5938C15.449 22.5938 14.0575 22.3577 13.0017 21.9441C13.0762 21.8756 13.1499 21.8061 13.2222 21.7345C13.8553 21.1072 14.3662 20.3923 14.7441 19.6182C15.4426 19.7259 16.1724 19.7812 16.9219 19.7812C18.7708 19.7812 21.0636 19.4219 22.5938 18.421V20.4844ZM22.5938 16.2656C22.5938 17.1257 20.3842 18.375 16.9219 18.375C16.3483 18.375 15.7891 18.3391 15.2503 18.2697C15.425 17.6236 15.5156 16.9513 15.5156 16.2656C15.5156 15.9896 15.5006 15.7156 15.4718 15.4445C15.9454 15.4914 16.4302 15.5156 16.9219 15.5156C18.7709 15.5156 21.0635 15.1562 22.5938 14.1554V16.2656ZM22.5938 12C22.5938 12.8601 20.3842 14.1094 16.9219 14.1094C16.3234 14.1094 15.7378 14.0702 15.1747 13.9942C14.8097 12.8105 14.1587 11.721 13.2567 10.8086C14.3438 11.1261 15.6065 11.2969 16.9219 11.2969C18.7709 11.2969 21.0635 10.9374 22.5938 9.93661V12ZM22.5938 7.78125C22.5938 8.64131 20.3842 9.89062 16.9219 9.89062C15.3278 9.89062 13.8401 9.61959 12.7328 9.12745C11.847 8.73384 11.2969 8.21798 11.2969 7.78125V5.68102C12.8191 6.6788 15.0924 7.03125 16.9219 7.03125C18.7709 7.03125 21.0635 6.67181 22.5938 5.67098V7.78125ZM16.9219 5.625C13.4871 5.625 11.2969 4.3943 11.2969 3.51562C11.2969 2.63423 13.4933 1.40625 16.9219 1.40625C20.3842 1.40625 22.5938 2.65556 22.5938 3.51562C22.5938 4.37569 20.3842 5.625 16.9219 5.625Z" fill="black"/>
</svg>
